<svg xmlns="http://www.w3.org/2000/svg" width="480" height="560" viewBox="0 0 480 560">
  <defs>
    <marker id="arrow2" markerWidth="10" markerHeight="10" refX="9" refY="3" orient="auto" markerUnits="strokeWidth">
      <path d="M0,0 L0,6 L9,3 z" fill="#555"/>
    </marker>
  </defs>
  <rect width="100%" height="100%" fill="white"/>

  <!-- Input -->
  <rect x="90" y="20" width="300" height="50" rx="6" fill="#e3f2fd" stroke="#1976d2" stroke-width="2"/>
  <text x="240" y="50" text-anchor="middle" font-family="Segoe UI, Arial, sans-serif" font-size="15" fill="#0d47a1">Input (keyboard / mouse / bot)</text>

  <line x1="240" y1="70" x2="240" y2="105" stroke="#555" stroke-width="2" marker-end="url(#arrow2)"/>

  <!-- OrderManager -->
  <rect x="90" y="110" width="300" height="50" rx="6" fill="#fff3e0" stroke="#f57c00" stroke-width="2"/>
  <text x="240" y="140" text-anchor="middle" font-family="Segoe UI, Arial, sans-serif" font-size="15" font-weight="bold" fill="#e65100">OrderManager (lockstep)</text>

  <line x1="240" y1="160" x2="240" y2="195" stroke="#555" stroke-width="2" marker-end="url(#arrow2)"/>

  <!-- World.Tick -->
  <rect x="90" y="200" width="300" height="50" rx="6" fill="#e8f5e9" stroke="#388e3c" stroke-width="2"/>
  <text x="240" y="230" text-anchor="middle" font-family="Segoe UI, Arial, sans-serif" font-size="15" font-weight="bold" fill="#1b5e20">World.Tick()</text>

  <line x1="240" y1="250" x2="240" y2="285" stroke="#555" stroke-width="2" marker-end="url(#arrow2)"/>

  <!-- Actor.Tick box -->
  <rect x="90" y="290" width="300" height="90" rx="6" fill="#f3e5f5" stroke="#7b1fa2" stroke-width="2"/>
  <text x="240" y="322" text-anchor="middle" font-family="Segoe UI, Arial, sans-serif" font-size="15" font-weight="bold" fill="#4a148c">Actor.Tick()</text>
  <text x="240" y="348" text-anchor="middle" font-family="Segoe UI, Arial, sans-serif" font-size="13" fill="#4a148c">foreach ITick t</text>
  <text x="240" y="372" text-anchor="middle" font-family="Segoe UI, Arial, sans-serif" font-size="13" fill="#4a148c">t.Tick(this)</text>

  <line x1="240" y1="380" x2="240" y2="415" stroke="#555" stroke-width="2" marker-end="url(#arrow2)"/>

  <!-- Effects/orders -->
  <rect x="90" y="420" width="300" height="50" rx="6" fill="#fff8e1" stroke="#fbc02d" stroke-width="2"/>
  <text x="240" y="450" text-anchor="middle" font-family="Segoe UI, Arial, sans-serif" font-size="15" fill="#f57f17">Effects, orders, frame-end tasks</text>

  <line x1="240" y1="470" x2="240" y2="505" stroke="#555" stroke-width="2" marker-end="url(#arrow2)"/>

  <!-- WorldRenderer.Draw -->
  <rect x="90" y="510" width="300" height="50" rx="6" fill="#ffebee" stroke="#c62828" stroke-width="2"/>
  <text x="240" y="540" text-anchor="middle" font-family="Segoe UI, Arial, sans-serif" font-size="15" font-weight="bold" fill="#b71c1c">WorldRenderer.Draw()</text>

  <line x1="390" y1="535" x2="420" y2="535" stroke="#555" stroke-width="2" marker-end="url(#arrow2)"/>
  <text x="430" y="540" font-family="Segoe UI, Arial, sans-serif" font-size="14" fill="#b71c1c">Renderer</text>
</svg>